<svg width="24" height="24" viewBox="0 0 24 24" fill="none" xmlns="http://www.w3.org/2000/svg">
<path d="M3.72694 5.18636C3.72694 4.38 4.38062 3.72632 5.18698 3.72632H9.37848C10.1848 3.72632 10.8385 4.38 10.8385 5.18636V7.60878C10.8385 8.41514 10.1848 9.06882 9.37848 9.06882H5.18698C4.38062 9.06882 3.72694 8.41514 3.72694 7.60878V5.18636Z" fill="#0DE7B9"/>
<path d="M3.72656 12.8291C3.72656 12.0228 4.38025 11.3691 5.1866 11.3691H9.37811C10.1845 11.3691 10.8382 12.0228 10.8382 12.8291V18.8132C10.8382 19.6196 10.1845 20.2733 9.37811 20.2733H5.18661C4.38025 20.2733 3.72656 19.6196 3.72656 18.8132V12.8291Z" fill="#0DE7B9"/>
<path d="M13.162 18.8135C13.162 19.6199 13.8156 20.2736 14.622 20.2736H18.8135C19.6199 20.2736 20.2736 19.6199 20.2736 18.8135V16.3911C20.2736 15.5848 19.6199 14.9311 18.8135 14.9311H14.622C13.8156 14.9311 13.162 15.5848 13.162 16.3911V18.8135Z" fill="#0DE7B9"/>
<path d="M13.162 11.1708C13.162 11.9771 13.8156 12.6308 14.622 12.6308H18.8135C19.6199 12.6308 20.2736 11.9771 20.2736 11.1708V5.18667C20.2736 4.38032 19.6199 3.72663 18.8135 3.72663H14.622C13.8156 3.72663 13.162 4.38031 13.162 5.18667V11.1708Z" fill="#0DE7B9"/>
</svg>
