<svg width="26" height="26" viewBox="0 0 26 26" fill="none" xmlns="http://www.w3.org/2000/svg">
<path d="M10.0208 0H1.89577C0.850388 0 0 0.850388 0 1.89577V6.77077C0 7.81635 0.850388 8.66673 1.89577 8.66673H10.0208C11.0663 8.66673 11.9167 7.81635 11.9167 6.77077V1.89577C11.9167 0.850388 11.0663 0 10.0208 0Z" fill="white"/>
<path d="M10.0208 10.8333H1.89577C0.850388 10.8333 0 11.6837 0 12.7292V24.1042C0 25.1496 0.850388 26 1.89577 26H10.0208C11.0663 26 11.9167 25.1496 11.9167 24.1042V12.7292C11.9167 11.6837 11.0663 10.8333 10.0208 10.8333Z" fill="white"/>
<path d="M24.1042 17.3333H15.9792C14.9337 17.3333 14.0833 18.1837 14.0833 19.2292V24.1042C14.0833 25.1496 14.9337 26 15.9792 26H24.1042C25.1496 26 26 25.1496 26 24.1042V19.2292C26 18.1837 25.1496 17.3333 24.1042 17.3333Z" fill="white"/>
<path d="M24.1042 0H15.9792C14.9337 0 14.0833 0.850388 14.0833 1.89577V13.2708C14.0833 14.3163 14.9337 15.1667 15.9792 15.1667H24.1042C25.1496 15.1667 26 14.3163 26 13.2708V1.89577C26 0.850388 25.1496 0 24.1042 0V0Z" fill="white"/>
</svg>
