<svg width="21" height="27" viewBox="0 0 21 27" fill="none" xmlns="http://www.w3.org/2000/svg">
<path fill-rule="evenodd" clip-rule="evenodd" d="M2.37305 27H18.1934C19.5019 27 20.5664 25.9355 20.5664 24.627V7.91016H15.0293C13.7207 7.91016 12.6562 6.84566 12.6562 5.53711V0H2.37305C1.0645 0 0 1.0645 0 2.37305V24.627C0 25.9355 1.0645 27 2.37305 27ZM5.53711 11.127H15.0293C15.4665 11.127 15.8203 11.4807 15.8203 11.918C15.8203 12.3552 15.4665 12.709 15.0293 12.709H5.53711C5.09989 12.709 4.74609 12.3552 4.74609 11.918C4.74609 11.4807 5.09989 11.127 5.53711 11.127ZM15.0293 14.291H5.53711C5.09989 14.291 4.74609 14.6448 4.74609 15.082C4.74609 15.5193 5.09989 15.873 5.53711 15.873H15.0293C15.4665 15.873 15.8203 15.5193 15.8203 15.082C15.8203 14.6448 15.4665 14.291 15.0293 14.291ZM5.32282 17.4551H12.2436C12.5624 17.4551 12.8203 17.8089 12.8203 18.2461C12.8203 18.6833 12.5624 19.0371 12.2436 19.0371H5.32282C5.00405 19.0371 4.74609 18.6833 4.74609 18.2461C4.74609 17.8089 5.00405 17.4551 5.32282 17.4551ZM9.16523 20.6191H5.23711C4.96571 20.6191 4.74609 20.9729 4.74609 21.4102C4.74609 21.8474 4.96571 22.2012 5.23711 22.2012H9.16523C9.43664 22.2012 9.65625 21.8474 9.65625 21.4102C9.65625 20.9729 9.43664 20.6191 9.16523 20.6191Z" fill="#6F52ED"/>
<path d="M15.0293 6.32813H20.1029L14.2383 0.463486V5.53711C14.2383 5.97354 14.5929 6.32813 15.0293 6.32813Z" fill="#6F52ED"/>
</svg>
