<svg width="28" height="32" viewBox="0 0 28 32" fill="none" xmlns="http://www.w3.org/2000/svg">
<g id="Group">
<g id="bell">
<path id="Path" d="M26.6133 26.9907L24.324 23.1747C23.2667 21.4134 22.708 19.396 22.708 17.3427V14C22.708 9.78 19.892 6.21069 16.0413 5.06V2.66669C16.0413 1.196 14.8453 0 13.3746 0C11.9039 0 10.7079 1.196 10.7079 2.66669V5.06C6.85729 6.21069 4.04129 9.78 4.04129 14V17.3427C4.04129 19.396 3.4826 21.412 2.4266 23.1734L0.137288 26.9894C0.0132883 27.1961 0.0106008 27.4521 0.129288 27.6614C0.247976 27.8707 0.467976 28.0001 0.707976 28.0001H26.0413C26.2813 28.0001 26.5026 27.8708 26.6213 27.6628C26.74 27.4547 26.736 27.196 26.6133 26.9907Z" fill="#6F52ED"/>
<path id="Path_2" d="M9.1759 29.3333C9.9279 30.904 11.5199 32 13.3745 32C15.2292 32 16.8212 30.904 17.5732 29.3333H9.1759V29.3333Z" fill="#6F52ED"/>
</g>
<path id="Oval" d="M25.1 8.53333C25.1 11.2027 22.9361 13.3667 20.2667 13.3667C17.5973 13.3667 15.4333 11.2027 15.4333 8.53333C15.4333 5.86396 17.5973 3.7 20.2667 3.7C22.9361 3.7 25.1 5.86396 25.1 8.53333Z" fill="#FC7100" stroke="#F6F5FA"/>
</g>
</svg>
