<svg width="18" height="18" viewBox="0 0 18 18" fill="none" xmlns="http://www.w3.org/2000/svg">
<g id="search">
<path id="Shape" fill-rule="evenodd" clip-rule="evenodd" d="M7.30619 6.86646e-05C11.3347 6.86646e-05 14.6124 3.27778 14.6124 7.30629C14.6124 8.91558 14.083 10.4001 13.198 11.6086L17.1899 15.6004C17.6288 16.0393 17.6288 16.7509 17.1899 17.1898C16.7509 17.6287 16.0393 17.6287 15.6004 17.1898L11.6087 13.1981C10.4001 14.0831 8.91551 14.6125 7.30622 14.6125C3.27771 14.6125 0 11.3348 0 7.30629C0 3.27778 3.27767 6.86646e-05 7.30619 6.86646e-05ZM2.24808 7.30629C2.24808 10.0955 4.51699 12.3644 7.30622 12.3644C10.0954 12.3644 12.3644 10.0955 12.3644 7.30629C12.3644 4.51706 10.0955 2.24815 7.30622 2.24815C4.51699 2.24815 2.24808 4.51706 2.24808 7.30629Z" fill="white"/>
</g>
</svg>
