<svg width="40" height="39" viewBox="0 0 40 39" fill="none" xmlns="http://www.w3.org/2000/svg">
<path d="M37.76 26.3C36.66 25.4 35.22 25.04 33.8 25.32L27.86 26.5H27.26C27.42 26.04 27.52 25.52 27.52 25C27.52 22.52 25.5 20.5 23.02 20.5H16.82C16.06 20.5 15.3 20.68 14.62 21.02L12.06 22.3C11.8 22.44 11.5 22.5 11.2 22.5H2C1.18 22.5 0.5 23.18 0.5 24C0.5 24.82 1.18 25.5 2 25.5H11.2C11.96 25.5 12.72 25.32 13.4 24.98L15.96 23.7C16.22 23.56 16.52 23.5 16.82 23.5H23.02C23.84 23.5 24.52 24.18 24.52 25C24.52 25.82 23.84 26.5 23.02 26.5H18.02C17.2 26.5 16.52 27.18 16.52 28C16.52 28.82 17.2 29.5 18.02 29.5H28.02C28.02 29.5 28.22 29.5 28.32 29.48L34.42 28.26C34.94 28.16 35.48 28.28 35.88 28.62C36.3 28.96 36.52 29.46 36.52 29.98C36.52 30.66 36.14 31.26 35.54 31.56L31.04 33.82C30.14 34.26 29.14 34.5 28.14 34.5H15.44C14.92 34.5 14.44 34.3 14.08 33.94C13.16 33.02 11.92 32.5 10.6 32.5H2C1.18 32.5 0.5 33.18 0.5 34C0.5 34.82 1.18 35.5 2 35.5H10.58C11.1 35.5 11.58 35.7 11.94 36.06C12.86 36.98 14.1 37.5 15.42 37.5H28.12C29.58 37.5 31.06 37.16 32.36 36.5L36.86 34.24C38.48 33.42 39.5 31.8 39.5 29.98C39.5 28.54 38.86 27.2 37.76 26.3Z" fill="#151D31"/>
<path d="M14.0001 17.4998C16.8001 17.4998 19.3601 15.9198 20.6401 13.4998H29.5401C30.0801 13.4998 30.6201 13.3798 31.1001 13.1398C32.3001 12.5398 33.0401 11.3398 33.0401 9.99981C33.0401 8.65981 32.3001 7.45981 31.1001 6.85981C30.6201 6.61981 30.0801 6.49981 29.5401 6.49981H20.6401C19.1201 3.57981 15.8601 1.97981 12.4801 2.63981C9.52007 3.21981 7.16007 5.61981 6.62007 8.59981C6.22007 10.8198 6.80007 13.0798 8.24007 14.7998C9.66007 16.5198 11.7601 17.4998 14.0001 17.4998ZM9.58007 9.13981C9.90007 7.37981 11.3401 5.91981 13.0601 5.57981C13.3601 5.51981 13.6801 5.47981 13.9801 5.47981C15.8801 5.47981 17.5801 6.63981 18.2401 8.47981C18.4601 9.07981 19.0201 9.47981 19.6601 9.47981H29.5401C29.5401 9.47981 29.7001 9.47981 29.7601 9.53981C30.0001 9.65981 30.0401 9.87981 30.0401 9.97981C30.0401 10.0798 30.0001 10.2998 29.7601 10.4198C29.7001 10.4598 29.6201 10.4798 29.5401 10.4798H19.6601C19.0201 10.4798 18.4601 10.8798 18.2401 11.4798C17.6001 13.2798 15.9001 14.4798 14.0001 14.4798C12.6601 14.4798 11.4001 13.8998 10.5401 12.8598C9.66007 11.8198 9.32007 10.4998 9.58007 9.11981V9.13981Z" fill="#151D31"/>
<path d="M14.04 11.5C14.86 11.5 15.54 10.82 15.54 10C15.54 9.18 14.86 8.5 14.04 8.5H14.02C13.2 8.5 12.54 9.18 12.54 10C12.54 10.82 13.22 11.5 14.04 11.5Z" fill="#151D31"/>
</svg>
