<svg width="40" height="40" viewBox="0 0 40 40" fill="none" xmlns="http://www.w3.org/2000/svg">
<path d="M37.8799 17.76L31.4999 11.38V8C31.4999 3.86 28.1399 0.5 23.9999 0.5H15.9999C12.2999 0.5 9.23992 3.2 8.63992 6.72C8.33992 6.76 8.03992 6.8 7.73992 6.88C4.35992 7.66 1.63992 10.36 0.799923 13.72C-0.160077 17.64 1.31992 21.6 4.49992 23.86V33.18C4.49992 34.12 4.85992 35 5.51992 35.66L7.51992 37.66C8.17992 38.32 9.05992 38.68 9.99992 38.68C10.9399 38.68 11.8199 38.32 12.4799 37.66L14.4799 35.66C15.1399 35 15.4999 34.12 15.4999 33.18V23.86C17.9799 22.08 19.4999 19.2 19.4999 16.12C19.4999 13.2 18.1799 10.48 15.8999 8.68C14.6599 7.7 13.2199 7.06 11.6799 6.8C12.2199 4.92 13.9399 3.52 15.9799 3.52H23.9799C26.4599 3.52 28.4799 5.54 28.4799 8.02V11.4L22.0999 17.78C21.0599 18.82 20.4799 20.2 20.4799 21.66V34C20.4799 37.04 22.9399 39.5 25.9799 39.5H33.9799C37.0199 39.5 39.4799 37.04 39.4799 34V21.66C39.4799 20.2 38.8999 18.8 37.8599 17.78L37.8799 17.76ZM16.4999 16.1C16.4999 18.42 15.2599 20.58 13.2399 21.74C12.7799 22 12.4999 22.5 12.4999 23.04V33.18C12.4999 33.32 12.4399 33.44 12.3599 33.54L10.3599 35.54C10.0999 35.8 9.89992 35.8 9.65992 35.54L7.65992 33.54C7.65992 33.54 7.51992 33.32 7.51992 33.18V23.04C7.51992 22.5 7.23992 22 6.77992 21.74C4.23992 20.28 3.01992 17.34 3.73992 14.42C4.29992 12.14 6.15992 10.32 8.43992 9.78C8.95992 9.66 9.47992 9.6 9.99992 9.6C11.4799 9.6 12.8999 10.08 14.0599 11C15.6199 12.24 16.5199 14.1 16.5199 16.1H16.4999ZM36.4999 34C36.4999 35.38 35.3799 36.5 33.9999 36.5H25.9999C24.6199 36.5 23.4999 35.38 23.4999 34V21.66C23.4999 21 23.7599 20.36 24.2399 19.9L29.9999 14.14L35.7599 19.9C36.2399 20.38 36.4999 21 36.4999 21.66V34Z" fill="#151D31"/>
<path d="M8.54004 16C8.54004 16.82 9.22004 17.5 10.04 17.5C10.86 17.5 11.54 16.82 11.54 16C11.54 15.18 10.86 14.5 10.04 14.5H10.02C9.20004 14.5 8.54004 15.18 8.54004 16Z" fill="#151D31"/>
<path d="M32 20.5H28C27.18 20.5 26.5 21.18 26.5 22C26.5 22.82 27.18 23.5 28 23.5H32C32.82 23.5 33.5 22.82 33.5 22C33.5 21.18 32.82 20.5 32 20.5Z" fill="#151D31"/>
</svg>
